<?xml version="1.0" encoding="UTF-8"?>
<svg xmlns="http://www.w3.org/2000/svg" xmlns:xlink="http://www.w3.org/1999/xlink" width="2622.52pt" height="316.97pt" viewBox="0 0 2622.52 316.97" version="1.1">
<defs>
<clipPath id="clip1">
  <path d="M 0 17 L 304 17 L 304 316.96875 L 0 316.96875 Z M 0 17 "/>
</clipPath>
<clipPath id="clip2">
  <path d="M 2323 16 L 2622.519531 16 L 2622.519531 306 L 2323 306 Z M 2323 16 "/>
</clipPath>
</defs>
<g id="surface1">
<path style=" stroke:none;fill-rule:nonzero;fill:rgb(1.998901%,56.098938%,81.199646%);fill-opacity:1;" d="M 269.144531 77.058594 C 288.496094 102.144531 304.542969 130.332031 316.976563 160.71875 L 316.976563 -0.00390625 L 180.496094 -0.00390625 C 213.324219 17.734375 243.402344 43.683594 269.144531 77.058594 "/>
<g clip-path="url(#clip1)" clip-rule="nonzero">
<path style=" stroke:none;fill-rule:nonzero;fill:rgb(1.998901%,56.098938%,81.199646%);fill-opacity:1;" d="M 72.382813 17.117188 C 47.097656 17.117188 22.777344 22.523438 0 32.523438 L 0 316.96875 L 303.027344 316.96875 C 300.679688 151.078125 198.117188 17.117188 72.382813 17.117188 "/>
</g>
<path style=" stroke:none;fill-rule:nonzero;fill:rgb(1.998901%,56.098938%,81.199646%);fill-opacity:1;" d="M 498.0625 267.972656 L 667.375 62.992188 L 503.382813 62.992188 L 503.382813 18.304688 L 732.96875 18.304688 L 732.96875 55.609375 L 563.652344 260.597656 L 732.96875 260.597656 L 732.96875 305.28125 L 498.0625 305.28125 L 498.0625 267.972656 "/>
<path style=" stroke:none;fill-rule:nonzero;fill:rgb(1.998901%,56.098938%,81.199646%);fill-opacity:1;" d="M 796.097656 18.304688 L 1008.46875 18.304688 L 1008.46875 63.808594 L 846.117188 63.808594 L 846.117188 137.601563 L 990.027344 137.601563 L 990.027344 183.113281 L 846.117188 183.113281 L 846.117188 259.769531 L 1010.511719 259.769531 L 1010.511719 305.277344 L 796.097656 305.277344 L 796.097656 18.304688 "/>
<path style=" stroke:none;fill-rule:nonzero;fill:rgb(1.998901%,56.098938%,81.199646%);fill-opacity:1;" d="M 1194.828125 160.558594 C 1212.910156 160.558594 1227.308594 156.25 1238 147.597656 C 1248.691406 138.945313 1254.039063 127.210938 1254.039063 112.390625 L 1254.039063 111.570313 C 1254.039063 95.925781 1248.820313 84.050781 1238.398438 75.949219 C 1227.988281 67.855469 1213.320313 63.804688 1194.398438 63.804688 L 1120.789063 63.804688 L 1120.789063 160.558594 Z M 1070.78125 18.304688 L 1198.691406 18.304688 C 1216.730469 18.304688 1232.71875 20.835938 1246.660156 25.890625 C 1260.589844 30.945313 1272.210938 37.980469 1281.5 47.003906 C 1289.148438 54.933594 1295.039063 64.085938 1299.140625 74.46875 C 1303.238281 84.859375 1305.28125 96.339844 1305.28125 108.90625 L 1305.28125 109.726563 C 1305.28125 121.480469 1303.570313 132.070313 1300.160156 141.5 C 1296.738281 150.933594 1292.019531 159.269531 1286.011719 166.507813 C 1280 173.75 1272.828125 179.902344 1264.488281 184.949219 C 1256.148438 190.015625 1246.929688 193.910156 1236.820313 196.640625 L 1314.300781 305.28125 L 1254.851563 305.28125 L 1184.121094 205.246094 L 1120.789063 205.246094 L 1120.789063 305.28125 L 1070.769531 305.28125 L 1070.769531 18.304688 L 1070.78125 18.304688 "/>
<path style=" stroke:none;fill-rule:nonzero;fill:rgb(1.998901%,56.098938%,81.199646%);fill-opacity:1;" d="M 1504.941406 263.871094 C 1519.089844 263.871094 1532.089844 261.210938 1543.921875 255.882813 C 1555.761719 250.546875 1565.898438 243.316406 1574.339844 234.160156 C 1582.761719 225 1589.371094 214.269531 1594.140625 201.96875 C 1598.898438 189.671875 1601.28125 176.554688 1601.28125 162.621094 L 1601.28125 161.796875 C 1601.28125 147.859375 1598.898438 134.671875 1594.140625 122.230469 C 1589.371094 109.796875 1582.691406 99.007813 1574.128906 89.847656 C 1565.558594 80.695313 1555.28125 73.382813 1543.300781 67.910156 C 1531.328125 62.449219 1518.269531 59.714844 1504.109375 59.714844 C 1489.960938 59.714844 1476.96875 62.375 1465.140625 67.707031 C 1453.289063 73.035156 1443.160156 80.28125 1434.71875 89.4375 C 1426.28125 98.597656 1419.679688 109.320313 1414.910156 121.617188 C 1410.148438 133.917969 1407.769531 147.035156 1407.769531 160.972656 L 1407.769531 161.796875 C 1407.769531 175.734375 1410.148438 188.921875 1414.910156 201.351563 C 1419.679688 213.800781 1426.359375 224.59375 1434.929688 233.746094 C 1443.5 242.90625 1453.769531 250.214844 1465.75 255.675781 C 1477.730469 261.144531 1490.789063 263.871094 1504.941406 263.871094 Z M 1504.121094 310.199219 C 1481.980469 310.199219 1461.761719 306.308594 1443.449219 298.523438 C 1425.140625 290.734375 1409.421875 280.144531 1396.300781 266.742188 C 1383.179688 253.355469 1372.941406 237.714844 1365.558594 219.808594 C 1358.171875 201.910156 1354.480469 182.839844 1354.480469 162.613281 L 1354.480469 161.792969 C 1354.480469 141.566406 1358.171875 122.507813 1365.558594 104.601563 C 1372.941406 86.703125 1383.308594 70.980469 1396.71875 57.449219 C 1410.101563 43.921875 1425.949219 33.195313 1444.28125 25.269531 C 1462.578125 17.347656 1482.800781 13.378906 1504.949219 13.378906 C 1527.078125 13.378906 1547.308594 17.273438 1565.621094 25.0625 C 1583.929688 32.851563 1599.648438 43.445313 1612.769531 56.835938 C 1625.878906 70.230469 1636.128906 85.878906 1643.511719 103.777344 C 1650.898438 121.679688 1654.589844 140.742188 1654.589844 160.964844 L 1654.589844 161.789063 C 1654.589844 182.015625 1650.898438 201.085938 1643.511719 218.980469 C 1636.128906 236.882813 1625.75 252.597656 1612.359375 266.125 C 1598.960938 279.648438 1583.109375 290.382813 1564.800781 298.308594 C 1546.480469 306.226563 1526.261719 310.199219 1504.121094 310.199219 "/>
<path style=" stroke:none;fill-rule:nonzero;fill:rgb(1.998901%,56.098938%,81.199646%);fill-opacity:1;" d="M 1822.261719 259.773438 C 1837.28125 259.773438 1850.960938 257.378906 1863.25 252.574219 C 1875.550781 247.761719 1886.011719 241.054688 1894.609375 232.410156 C 1903.21875 223.757813 1909.910156 213.460938 1914.699219 201.519531 C 1919.480469 189.582031 1921.890625 176.617188 1921.890625 162.613281 L 1921.890625 161.792969 C 1921.890625 147.792969 1919.480469 134.761719 1914.699219 122.683594 C 1909.910156 110.605469 1903.21875 100.25 1894.609375 91.605469 C 1886.011719 82.949219 1875.550781 76.160156 1863.25 71.21875 C 1850.960938 66.277344 1837.28125 63.804688 1822.261719 63.804688 L 1765.671875 63.804688 L 1765.671875 259.769531 L 1822.261719 259.769531 Z M 1715.660156 18.304688 L 1822.671875 18.304688 C 1845.078125 18.304688 1865.640625 21.929688 1884.371094 29.171875 C 1903.101563 36.410156 1919.210938 46.457031 1932.738281 59.300781 C 1946.28125 72.148438 1956.71875 87.253906 1964.109375 104.609375 C 1971.488281 121.964844 1975.179688 140.757813 1975.179688 160.980469 L 1975.179688 161.800781 C 1975.179688 182.03125 1971.488281 200.890625 1964.109375 218.375 C 1956.71875 235.859375 1946.28125 251.042969 1932.738281 263.882813 C 1919.210938 276.738281 1903.101563 286.84375 1884.371094 294.21875 C 1865.640625 301.597656 1845.078125 305.285156 1822.671875 305.285156 L 1715.660156 305.285156 L 1715.660156 18.304688 "/>
<path style=" stroke:none;fill-rule:nonzero;fill:rgb(1.998901%,56.098938%,81.199646%);fill-opacity:1;" d="M 2036.261719 18.304688 L 2086.28125 18.304688 L 2086.28125 137.605469 L 2224.039063 137.605469 L 2224.039063 18.304688 L 2274.058594 18.304688 L 2274.058594 305.285156 L 2224.039063 305.285156 L 2224.039063 184.34375 L 2086.28125 184.34375 L 2086.28125 305.28125 L 2036.261719 305.28125 L 2036.261719 18.304688 "/>
<g clip-path="url(#clip2)" clip-rule="nonzero">
<path style=" stroke:none;fill-rule:nonzero;fill:rgb(1.998901%,56.098938%,81.199646%);fill-opacity:1;" d="M 2521.671875 191.320313 L 2472.058594 76.523438 L 2422.859375 191.320313 Z M 2449.511719 16.253906 L 2496.25 16.253906 L 2622.519531 305.28125 L 2569.230469 305.28125 L 2540.109375 236 L 2404.410156 236 L 2374.890625 305.28125 L 2323.230469 305.28125 L 2449.511719 16.253906 "/>
</g>
</g>
</svg>
